<svg version="1.1" id="Layer_1" xmlns="http://www.w3.org/2000/svg" xmlns:xlink="http://www.w3.org/1999/xlink" x="0px" y="0px"
	 width="100%" viewBox="0 0 1000 1247" enable-background="new 0 0 1000 1247" xml:space="preserve">
<path fill="#EE403A" opacity="1.000000" stroke="none" 
	d="
M1001.000000,343.000000 
	C1001.000000,645.000000 1001.000000,946.500000 1001.000000,1248.000000 
	C667.666687,1248.000000 334.333344,1248.000000 1.000000,1248.000000 
	C1.000000,832.333313 1.000000,416.666656 1.000000,1.000000 
	C334.333344,1.000000 667.666687,1.000000 1001.000000,1.000000 
	C1001.000000,114.833336 1001.000000,228.666672 1001.000000,343.000000 
M972.221619,954.500122 
	C972.221619,647.080383 972.221619,339.660614 972.221619,32.138111 
	C657.788635,32.138111 344.039734,32.138111 30.034636,32.138111 
	C30.034636,427.127075 30.034636,821.855347 30.034636,1216.770508 
	C344.149994,1216.770508 658.022278,1216.770508 972.221619,1216.770508 
	C972.221619,1129.451416 972.221619,1042.475830 972.221619,954.500122 
z"/>
<path fill="#FFFEFE" opacity="1.000000" stroke="none" 
	d="
M972.221619,955.000122 
	C972.221619,1042.475830 972.221619,1129.451416 972.221619,1216.770508 
	C658.022278,1216.770508 344.149994,1216.770508 30.034636,1216.770508 
	C30.034636,821.855347 30.034636,427.127075 30.034636,32.138111 
	C344.039734,32.138111 657.788635,32.138111 972.221619,32.138111 
	C972.221619,339.660614 972.221619,647.080383 972.221619,955.000122 
M87.850266,602.499939 
	C87.850266,787.906189 87.850266,973.312439 87.850266,1158.808594 
	C363.564606,1158.808594 638.620483,1158.808594 913.916199,1158.808594 
	C913.916199,802.517944 913.916199,446.485382 913.916199,90.276154 
	C638.501892,90.276154 363.323975,90.276154 87.850266,90.276154 
	C87.850266,260.912628 87.850266,431.206268 87.850266,602.499939 
z"/>
<path fill="#EE3E38" opacity="1.000000" stroke="none" 
	d="
M87.850266,601.999878 
	C87.850266,431.206268 87.850266,260.912628 87.850266,90.276154 
	C363.323975,90.276154 638.501892,90.276154 913.916199,90.276154 
	C913.916199,446.485382 913.916199,802.517944 913.916199,1158.808594 
	C638.620483,1158.808594 363.564606,1158.808594 87.850266,1158.808594 
	C87.850266,973.312439 87.850266,787.906189 87.850266,601.999878 
M804.518372,451.494049 
	C804.518311,393.001373 804.489746,334.508636 804.590027,276.016144 
	C804.596008,272.533813 803.869995,270.070831 800.798645,268.114410 
	C782.006409,256.144043 763.958191,242.823593 744.426208,232.231903 
	C690.959106,203.238098 633.418457,187.019562 572.973938,180.812408 
	C525.236572,175.910172 477.549438,175.038818 429.910675,181.908249 
	C381.072144,188.950699 334.860352,203.705704 293.212982,230.586578 
	C230.141663,271.295380 190.678284,327.105682 185.557327,403.898071 
	C183.339783,437.151581 187.097778,469.747772 198.642593,501.203461 
	C213.805908,542.518372 241.537094,574.028503 276.347687,599.823669 
	C313.870789,627.628967 355.956055,646.871948 399.440155,662.900696 
	C433.898102,675.602356 469.057037,686.403015 503.908417,698.036682 
	C535.041260,708.429077 565.696045,719.928711 593.819092,737.212646 
	C625.747681,756.835449 648.394226,782.809753 651.453369,822.051880 
	C654.380066,859.594482 642.238464,890.575317 611.065918,912.828857 
	C587.298706,929.795898 559.933167,936.609802 531.361267,938.856506 
	C485.557434,942.458252 440.565552,937.763123 396.659088,923.919312 
	C373.514282,916.621582 351.468872,907.007629 332.163849,891.960938 
	C330.464569,890.636475 328.523926,888.598999 328.223175,886.656250 
	C323.664581,857.209656 319.366302,827.722656 314.996002,798.246826 
	C313.389252,787.409851 311.753662,776.577087 310.130859,765.740112 
	C264.861694,765.740112 220.099762,765.740112 175.345200,765.740112 
	C175.193314,766.516663 175.016861,766.997925 175.016708,767.479187 
	C174.996582,835.972839 174.970734,904.466492 175.097626,972.959839 
	C175.100540,974.530579 176.456421,976.647522 177.817856,977.587280 
	C221.367935,1007.646362 267.913696,1031.697266 318.716309,1047.019531 
	C362.755615,1060.302002 407.889343,1067.328247 453.731262,1070.290527 
	C502.773712,1073.459473 551.640015,1072.799438 600.146179,1063.974609 
	C645.610413,1055.703247 688.695374,1041.042847 727.443420,1015.278687 
	C768.722107,987.831909 799.640137,951.964294 815.645996,904.413025 
	C825.775452,874.319946 828.415955,843.322266 826.318054,811.732788 
	C824.217773,780.108521 816.821960,749.997070 802.408203,721.681763 
	C783.435059,684.409790 754.289062,656.565308 720.287170,633.320007 
	C671.861328,600.213806 618.324646,578.026917 562.531433,561.109741 
	C517.744202,547.529663 473.528595,532.590454 431.440430,511.948395 
	C411.907684,502.368530 393.340607,491.167297 378.995483,474.386566 
	C348.533325,438.752350 353.140961,380.947479 388.914978,348.277893 
	C413.490479,325.834991 443.518036,316.464142 475.766632,313.122070 
	C503.746124,310.222443 531.706909,311.542450 559.444397,316.055725 
	C589.856567,321.004150 619.017029,329.939240 646.223694,344.739075 
	C649.396057,346.464752 651.105286,348.555756 651.774536,352.215027 
	C656.414551,377.586548 661.263428,402.920013 666.072754,428.260468 
	C668.514587,441.126831 671.013611,453.982361 673.472900,466.770691 
	C717.334534,466.770691 760.723694,466.770691 804.518311,466.770691 
	C804.518311,461.778687 804.518311,457.134735 804.518372,451.494049 
z"/>
<path fill="#FFFFFF" opacity="1.000000" stroke="none" 
	d="
M804.518311,451.992401 
	C804.518311,457.134735 804.518311,461.778687 804.518311,466.770691 
	C760.723694,466.770691 717.334534,466.770691 673.472900,466.770691 
	C671.013611,453.982361 668.514587,441.126831 666.072754,428.260468 
	C661.263428,402.920013 656.414551,377.586548 651.774536,352.215027 
	C651.105286,348.555756 649.396057,346.464752 646.223694,344.739075 
	C619.017029,329.939240 589.856567,321.004150 559.444397,316.055725 
	C531.706909,311.542450 503.746124,310.222443 475.766632,313.122070 
	C443.518036,316.464142 413.490479,325.834991 388.914978,348.277893 
	C353.140961,380.947479 348.533325,438.752350 378.995483,474.386566 
	C393.340607,491.167297 411.907684,502.368530 431.440430,511.948395 
	C473.528595,532.590454 517.744202,547.529663 562.531433,561.109741 
	C618.324646,578.026917 671.861328,600.213806 720.287170,633.320007 
	C754.289062,656.565308 783.435059,684.409790 802.408203,721.681763 
	C816.821960,749.997070 824.217773,780.108521 826.318054,811.732788 
	C828.415955,843.322266 825.775452,874.319946 815.645996,904.413025 
	C799.640137,951.964294 768.722107,987.831909 727.443420,1015.278687 
	C688.695374,1041.042847 645.610413,1055.703247 600.146179,1063.974609 
	C551.640015,1072.799438 502.773712,1073.459473 453.731262,1070.290527 
	C407.889343,1067.328247 362.755615,1060.302002 318.716309,1047.019531 
	C267.913696,1031.697266 221.367935,1007.646362 177.817856,977.587280 
	C176.456421,976.647522 175.100540,974.530579 175.097626,972.959839 
	C174.970734,904.466492 174.996582,835.972839 175.016708,767.479187 
	C175.016861,766.997925 175.193314,766.516663 175.345200,765.740112 
	C220.099762,765.740112 264.861694,765.740112 310.130859,765.740112 
	C311.753662,776.577087 313.389252,787.409851 314.996002,798.246826 
	C319.366302,827.722656 323.664581,857.209656 328.223175,886.656250 
	C328.523926,888.598999 330.464569,890.636475 332.163849,891.960938 
	C351.468872,907.007629 373.514282,916.621582 396.659088,923.919312 
	C440.565552,937.763123 485.557434,942.458252 531.361267,938.856506 
	C559.933167,936.609802 587.298706,929.795898 611.065918,912.828857 
	C642.238464,890.575317 654.380066,859.594482 651.453369,822.051880 
	C648.394226,782.809753 625.747681,756.835449 593.819092,737.212646 
	C565.696045,719.928711 535.041260,708.429077 503.908417,698.036682 
	C469.057037,686.403015 433.898102,675.602356 399.440155,662.900696 
	C355.956055,646.871948 313.870789,627.628967 276.347687,599.823669 
	C241.537094,574.028503 213.805908,542.518372 198.642593,501.203461 
	C187.097778,469.747772 183.339783,437.151581 185.557327,403.898071 
	C190.678284,327.105682 230.141663,271.295380 293.212982,230.586578 
	C334.860352,203.705704 381.072144,188.950699 429.910675,181.908249 
	C477.549438,175.038818 525.236572,175.910172 572.973938,180.812408 
	C633.418457,187.019562 690.959106,203.238098 744.426208,232.231903 
	C763.958191,242.823593 782.006409,256.144043 800.798645,268.114410 
	C803.869995,270.070831 804.596008,272.533813 804.590027,276.016144 
	C804.489746,334.508636 804.518311,393.001373 804.518311,451.992401 
z"/>
</svg>